# xmcd CD database file generated by Grip 3.3.1
# 
# Track frame offsets:
#       150
#       10085
#       19217
#       27352
#       34320
#       51827
#       65797
#       75240
#       85537
#       94987
#       110747
#       126997
#       135377
#       138682
#       146945
#       157885
#       168680
#       181092
#       195475
#       220307
# 
# Disc length: 3616 seconds
# 
# Revision: 1
# Processed by: cddbd v1.5.2PL0 Copyright (c) Steve Scherf et al.
# Submitted via: Grip 3.3.1
# 
DISCID=1c0e1e14
DTITLE=Eva Ben-Zvi (Anne Frank), Bolshoi Theatre Orchestra, Andrey Chist
DTITLE=iakov - Grigori Frid - The Diary of Anne Frank, opera monologue i
DTITLE=n two parts
DYEAR=1991
DGENRE=Classical
TTITLE0=Overture - Introduction, Part I
TTITLE1=The Birthday - Scene 1, Part I
TTITLE2=The School - Scene 1, Part I
TTITLE3=Conversation with Father - Scene 1, Part I
TTITLE4=Summoned by the Gestapo - Scene 2, Part I
TTITLE5=The Hiding Place (The Chimes of the Wwestertoren) - Scene 2, Part
TTITLE5=I
TTITLE6=The Window - Scene 2, Part I
TTITLE7=They told me... - Scene 2, Part I
TTITLE8=Despair - Scene 2, Part I
TTITLE9=Memory - Scene 2, Part I
TTITLE10=Dream - Scene 2, Part I
TTITLE11=Orchestral interlude, Part II
TTITLE12=Dialogue of the Van Daan Couple - Scene 3, Part II
TTITLE13=The Burglars - Scene 3, Part II
TTITLE14=Recitative - Scene 3, Part II
TTITLE15=Remember Peter... - Scene 3, Part II
TTITLE16=On the Russian Front - Scene 4, Part II
TTITLE17=The Raid - Scene 4, Part II
TTITLE18=Solitude - Scene 4, Part II
TTITLE19=Passacaglia - Finale - Scene 4, Part II
EXTD=
EXTT0=
EXTT1=
EXTT2=
EXTT3=
EXTT4=
EXTT5=
EXTT6=
EXTT7=
EXTT8=
EXTT9=
EXTT10=
EXTT11=
EXTT12=
EXTT13=
EXTT14=
EXTT15=
EXTT16=
EXTT17=
EXTT18=
EXTT19=
PLAYORDER=
